<?xml version="1.0" standalone="no"?>
<!DOCTYPE svg PUBLIC "-//W3C//DTD SVG 20010904//EN"
 "http://www.w3.org/TR/2001/REC-SVG-20010904/DTD/svg10.dtd">
<svg version="1.0" xmlns="http://www.w3.org/2000/svg"
 width="1080.000000pt" height="1080.000000pt" viewBox="0 0 1080.000000 1080.000000"
 preserveAspectRatio="xMidYMid meet">

<g transform="translate(0.000000,1080.000000) scale(0.100000,-0.100000)"
fill="#000000" stroke="none">
<path d="M0 5400 l0 -5400 5400 0 5400 0 0 5400 0 5400 -5400 0 -5400 0 0
-5400z m5700 5141 c157 -51 317 -103 355 -116 39 -13 205 -67 370 -121 165
-53 365 -118 445 -144 80 -26 195 -64 255 -83 61 -20 286 -93 500 -162 215
-70 473 -154 575 -187 102 -33 206 -67 232 -75 40 -14 55 -28 105 -97 33 -45
95 -130 139 -189 43 -59 88 -121 99 -136 11 -16 40 -57 65 -91 25 -34 54 -75
65 -91 32 -45 183 -252 270 -370 44 -60 100 -137 125 -172 24 -34 74 -102 110
-152 36 -49 88 -121 116 -159 27 -37 83 -114 124 -170 41 -56 91 -124 110
-152 18 -27 64 -89 101 -139 36 -49 168 -231 293 -402 l226 -313 0 -1619 0
-1620 -67 -95 c-38 -52 -149 -205 -248 -341 -99 -135 -189 -259 -200 -274 -66
-93 -115 -161 -207 -287 -173 -236 -382 -524 -398 -547 -8 -12 -43 -60 -77
-107 -34 -47 -82 -112 -106 -145 -38 -52 -294 -404 -411 -566 -108 -149 -157
-216 -173 -236 -19 -24 -20 -24 -1158 -393 -99 -32 -259 -84 -355 -115 -96
-32 -263 -86 -370 -120 -107 -35 -271 -88 -365 -119 -93 -30 -322 -104 -508
-165 l-339 -110 -86 29 c-48 15 -177 57 -287 93 -110 36 -310 101 -445 145
-135 44 -387 126 -560 182 -173 56 -346 112 -385 125 -38 13 -205 67 -370 120
-165 53 -331 107 -370 120 -38 13 -183 61 -321 105 l-252 82 -49 66 c-27 37
-71 98 -99 135 -27 38 -81 112 -120 165 -161 222 -490 675 -509 702 -11 16
-119 164 -240 330 -121 166 -227 311 -235 323 -8 12 -43 60 -77 107 -143 195
-132 180 -445 612 l-128 178 0 1619 0 1620 73 101 c39 56 81 114 92 130 31 44
415 571 444 610 14 19 33 44 41 57 8 12 114 158 235 323 121 166 229 314 240
330 23 33 403 557 505 695 36 50 113 154 170 232 96 132 107 144 149 157 120
38 1008 326 1206 391 72 24 265 86 430 139 165 54 332 108 370 121 39 13 212
69 385 125 173 56 387 126 475 155 88 29 165 52 170 51 6 -2 138 -45 295 -95z"/>
<path d="M5331 10322 c-6 -11 -31 -72 -56 -138 -26 -65 -57 -146 -70 -179 -13
-33 -40 -103 -60 -155 -20 -52 -51 -133 -70 -180 -74 -191 -138 -354 -200
-515 -37 -93 -77 -197 -90 -230 -23 -59 -62 -161 -131 -340 -19 -49 -41 -105
-49 -123 -20 -44 -20 -47 17 -93 l31 -39 746 0 746 0 34 41 c20 24 31 47 28
57 -3 9 -24 64 -47 122 -22 58 -50 128 -60 155 -10 28 -36 95 -58 150 -21 55
-62 161 -91 235 -28 74 -56 144 -61 155 -5 11 -33 81 -61 155 -29 74 -69 180
-91 235 -21 55 -48 123 -58 150 -10 28 -36 95 -58 150 -21 55 -62 160 -90 233
-72 184 -62 172 -132 172 -47 0 -61 -4 -69 -18z"/>
<path d="M5050 10280 c-125 -42 -287 -94 -860 -280 -391 -127 -645 -209 -890
-289 -80 -27 -254 -83 -387 -126 -134 -44 -243 -81 -243 -84 0 -3 42 -33 93
-66 50 -32 151 -97 222 -143 72 -47 153 -99 180 -117 28 -18 88 -57 135 -87
186 -120 231 -149 385 -248 88 -57 203 -131 255 -165 52 -34 127 -82 165 -107
39 -25 110 -71 158 -102 62 -41 95 -56 110 -53 67 17 99 26 101 29 2 3 58 145
161 413 69 179 93 241 131 340 20 50 41 106 49 125 19 49 77 197 120 310 20
52 58 151 85 220 27 69 65 168 85 220 20 52 50 128 66 168 16 41 29 75 29 78
0 10 -43 0 -150 -36z"/>
<path d="M5600 10316 c0 -3 13 -37 29 -78 30 -76 60 -153 106 -273 15 -38 42
-108 60 -155 18 -47 44 -114 58 -150 14 -36 46 -118 71 -182 25 -65 46 -120
46 -124 0 -3 6 -20 14 -37 17 -38 44 -106 211 -542 70 -181 129 -332 130 -333
3 -3 36 -13 102 -29 14 -3 43 9 90 40 37 24 122 79 188 122 66 43 143 92 170
110 98 64 661 428 733 474 40 25 135 87 211 136 76 50 177 115 224 145 48 30
87 57 87 60 0 4 -116 44 -257 90 -142 46 -316 102 -388 126 -71 23 -265 86
-430 139 -165 54 -358 116 -430 140 -116 38 -398 130 -850 276 -142 46 -175
55 -175 45z"/>
<path d="M2489 9396 l-46 -34 34 -128 c19 -71 47 -178 63 -239 15 -60 37 -144
48 -185 23 -86 219 -829 263 -995 15 -60 40 -153 54 -205 13 -52 34 -132 46
-177 19 -74 24 -83 45 -83 12 0 33 -4 46 -9 30 -11 26 -14 242 144 97 72 190
139 206 150 98 68 749 544 767 560 14 13 24 37 28 70 l5 50 -87 55 c-48 30
-135 87 -195 125 -59 39 -171 111 -248 160 -77 50 -182 117 -234 150 -51 33
-135 87 -186 120 -52 33 -137 88 -189 122 -53 34 -136 87 -186 119 -49 32
-146 94 -215 139 -161 104 -195 125 -206 125 -5 0 -30 -16 -55 -34z"/>
<path d="M8133 9358 c-62 -40 -176 -113 -253 -163 -188 -121 -417 -267 -595
-383 -44 -28 -117 -75 -163 -104 -45 -29 -201 -129 -347 -223 l-265 -170 6
-50 c4 -32 14 -58 28 -71 11 -11 120 -92 241 -179 121 -88 252 -182 290 -210
39 -29 162 -119 275 -200 113 -82 243 -177 290 -212 51 -38 91 -60 100 -57 8
3 31 8 51 11 l37 5 52 202 c63 239 99 377 133 506 157 591 233 880 252 955 13
50 37 142 54 205 17 63 31 123 31 132 0 16 -77 78 -97 78 -4 0 -59 -33 -120
-72z"/>
<path d="M2145 8998 c-105 -144 -224 -308 -265 -365 -161 -220 -245 -336 -391
-538 -84 -115 -169 -232 -189 -260 -77 -103 -180 -245 -295 -405 -65 -91 -143
-198 -173 -238 -30 -40 -52 -76 -49 -79 4 -3 93 -1 199 6 106 6 319 18 473 26
270 15 532 29 1075 60 140 8 258 15 262 15 4 0 9 9 13 19 3 10 17 31 32 45 31
31 31 24 -32 256 -26 96 -55 207 -65 245 -10 39 -48 183 -85 320 -37 138 -78
291 -90 340 -13 50 -42 160 -65 245 -23 85 -50 187 -60 225 -10 39 -30 115
-45 170 -14 55 -31 117 -36 138 -5 20 -13 37 -17 37 -4 0 -93 -118 -197 -262z"/>
<path d="M8446 9243 c-3 -10 -16 -61 -30 -113 -14 -52 -55 -207 -91 -345 -37
-137 -77 -290 -90 -340 -37 -141 -137 -516 -211 -790 -98 -367 -93 -337 -57
-378 17 -19 32 -40 34 -46 3 -7 72 -15 189 -21 102 -5 255 -14 340 -20 85 -6
369 -22 630 -35 261 -14 560 -30 663 -36 103 -7 190 -9 193 -6 6 5 -13 33
-136 200 -25 34 -97 133 -160 220 -63 87 -139 191 -168 230 -28 40 -81 113
-117 162 -35 50 -119 164 -185 255 -198 271 -234 321 -250 344 -8 11 -40 55
-70 96 -30 41 -62 84 -70 97 -60 88 -396 543 -401 543 -4 0 -10 -8 -13 -17z"/>
<path d="M4670 8201 c-5 -11 -10 -26 -10 -34 0 -8 125 -134 277 -278 153 -145
300 -286 328 -312 42 -40 54 -47 75 -40 24 7 79 7 127 1 21 -3 46 20 565 512
108 102 111 106 101 135 l-10 30 -721 3 c-705 2 -721 2 -732 -17z"/>
<path d="M4219 8026 c-57 -41 -153 -111 -214 -155 -262 -191 -406 -296 -486
-354 -362 -259 -361 -258 -354 -286 4 -14 10 -29 14 -33 4 -4 115 -22 246 -39
132 -17 333 -43 447 -58 l208 -27 29 36 c18 23 44 41 69 48 l40 12 12 73 c7
39 23 128 36 197 13 69 33 175 44 235 10 61 31 173 45 249 23 130 24 141 8
158 -9 10 -22 18 -28 18 -7 0 -59 -34 -116 -74z"/>
<path d="M6437 8082 c-18 -20 -22 5 62 -452 16 -91 41 -228 55 -304 15 -77 26
-143 26 -148 0 -4 18 -13 41 -20 25 -7 52 -25 68 -45 32 -40 29 -40 276 -7
105 13 293 38 419 54 126 17 230 31 231 33 9 10 25 48 25 56 0 6 -26 28 -57
50 -53 37 -238 170 -408 296 -69 51 -462 336 -617 448 -43 31 -85 57 -92 57
-7 0 -20 -8 -29 -18z"/>
<path d="M4532 8053 c-28 -10 -44 -22 -47 -36 -3 -12 -43 -213 -90 -447 -82
-413 -83 -425 -66 -445 44 -48 54 -120 26 -175 -15 -29 -14 -33 50 -162 37
-73 69 -136 73 -140 4 -4 166 -2 359 4 l353 12 2 220 3 221 50 0 50 0 3 -222
2 -223 95 0 95 0 0 218 0 217 -42 75 c-33 57 -50 76 -72 81 -77 21 -132 93
-124 164 l4 37 -335 309 c-184 170 -337 308 -340 308 -3 -1 -25 -8 -49 -16z"/>
<path d="M5877 7759 c-317 -292 -336 -312 -331 -339 7 -33 -11 -93 -34 -117
-15 -15 -13 -23 36 -117 l53 -101 -1 -211 0 -211 308 -9 c197 -6 312 -6 320 0
7 5 60 72 118 148 89 117 103 141 94 157 -13 26 -13 97 1 124 6 12 20 31 30
42 18 20 16 31 -66 445 -47 234 -87 435 -90 447 -3 14 -19 26 -52 37 -25 9
-47 16 -48 16 -1 0 -153 -140 -338 -311z"/>
<path d="M2410 7084 c-113 -7 -374 -22 -580 -34 -206 -12 -528 -30 -715 -40
-187 -11 -352 -20 -367 -20 -23 0 -29 -7 -48 -56 -11 -31 -19 -60 -18 -64 3
-8 70 -65 268 -225 68 -55 217 -176 331 -270 114 -93 249 -204 300 -245 51
-41 185 -151 298 -243 113 -93 215 -176 226 -185 12 -10 55 -45 97 -79 42 -35
82 -63 90 -63 7 0 22 7 32 15 11 8 28 15 37 15 18 0 23 12 105 265 25 77 81
248 124 380 43 132 117 360 165 507 l87 267 -27 45 -27 46 -86 -1 c-48 -1
-179 -8 -292 -15z"/>
<path d="M7982 7053 l-23 -49 39 -119 c44 -133 221 -677 314 -965 109 -337
103 -323 137 -335 16 -5 33 -13 37 -17 16 -17 38 -5 135 75 56 45 178 145 273
222 224 184 308 252 441 360 61 49 160 130 220 180 61 51 211 174 335 274 124
100 226 186 228 190 1 5 -7 34 -18 65 -19 49 -25 56 -48 56 -40 0 -727 39
-802 45 -72 6 -924 53 -1120 61 l-125 6 -23 -49z"/>
<path d="M3147 7046 c-15 -19 -27 -42 -27 -50 0 -8 84 -197 186 -420 l186
-404 42 -11 c45 -11 74 -37 100 -88 18 -35 8 -32 201 -63 126 -19 419 -67 615
-99 63 -10 118 -17 121 -15 10 6 21 403 13 462 -15 112 -69 150 -225 159 -118
6 -149 19 -149 61 0 42 11 50 78 58 34 3 62 10 62 15 0 5 -24 56 -52 114 -48
96 -55 105 -81 105 -15 0 -41 7 -56 15 -27 13 -75 62 -83 84 -1 5 -88 18 -193
30 -168 18 -539 61 -666 77 -43 5 -47 4 -72 -30z"/>
<path d="M7395 7055 c-297 -36 -636 -75 -654 -75 -9 0 -26 -16 -39 -35 -30
-48 -78 -75 -129 -75 l-42 0 -101 -135 c-55 -74 -103 -140 -106 -148 -3 -8 18
-70 46 -138 28 -68 58 -143 66 -166 9 -23 21 -46 28 -52 7 -6 66 -22 132 -35
65 -13 184 -38 264 -56 80 -17 180 -38 223 -47 l78 -16 30 37 c21 25 44 39 74
47 l43 11 148 321 c81 177 164 358 184 402 51 110 51 106 18 148 -34 43 -13
42 -263 12z"/>
<path d="M2928 6913 c-9 -27 -62 -190 -118 -363 -56 -173 -124 -380 -150 -460
-91 -275 -160 -492 -160 -502 0 -13 30 -37 47 -38 6 0 105 51 220 113 203 111
291 158 471 253 113 61 112 60 112 108 0 28 8 54 25 78 l25 37 -109 228 c-60
125 -139 291 -176 368 -37 77 -76 159 -86 183 -16 37 -22 42 -52 42 -31 0 -34
-4 -49 -47z"/>
<path d="M7771 6918 c-10 -24 -48 -104 -85 -180 -36 -75 -115 -240 -176 -368
l-110 -231 25 -37 c17 -26 25 -50 25 -82 l0 -45 103 -54 c161 -85 297 -158
535 -288 84 -46 159 -83 166 -83 7 0 21 9 31 19 16 19 14 29 -64 273 -45 139
-93 285 -106 323 -13 39 -69 212 -125 385 -146 453 -128 410 -167 410 -30 0
-36 -5 -52 -42z"/>
<path d="M650 5401 c0 -732 3 -1331 6 -1331 6 0 74 54 394 315 239 196 326
266 570 465 112 91 291 237 399 325 l196 161 2 62 c2 54 0 65 -20 81 -25 22
-335 274 -471 384 -49 40 -133 108 -186 152 -53 44 -150 123 -215 175 -106 86
-319 260 -564 460 -51 41 -96 77 -102 78 -5 2 -9 -502 -9 -1327z"/>
<path d="M10054 6662 c-45 -37 -170 -139 -278 -227 -109 -88 -230 -187 -269
-219 -40 -32 -209 -170 -377 -307 -168 -136 -359 -292 -425 -346 l-120 -98 -2
-62 c-2 -42 2 -66 11 -75 12 -11 189 -156 511 -418 295 -240 521 -424 694
-565 317 -258 338 -275 345 -275 3 0 6 599 6 1330 0 732 -3 1330 -7 1330 -5 0
-44 -31 -89 -68z"/>
<path d="M5300 6015 l0 -525 95 0 95 0 0 525 0 525 -95 0 -95 0 0 -525z"/>
<path d="M5921 6528 c0 -7 26 -25 57 -40 31 -15 91 -50 132 -77 66 -45 100
-60 100 -47 0 3 -19 39 -41 81 -27 50 -50 80 -66 86 -38 14 -183 12 -182 -3z"/>
<path d="M5600 6024 l0 -505 23 7 c76 23 158 94 195 170 12 23 26 72 32 110
21 128 12 115 83 112 l62 -3 0 -470 0 -470 -57 -3 c-32 -2 -58 -2 -58 0 -16
139 -68 266 -129 320 -38 34 -130 80 -143 72 -4 -3 -8 -252 -8 -555 l0 -549
23 0 c58 1 180 31 259 63 176 73 325 193 542 435 l38 44 67 -6 c36 -2 71 -6
76 -7 6 -1 132 9 280 21 l270 23 28 34 c52 60 124 80 185 49 26 -13 35 -9 212
90 102 57 239 134 305 170 66 37 162 91 213 121 l93 55 -3 50 -3 51 -70 39
c-66 38 -212 120 -565 318 -148 83 -156 87 -182 74 -67 -34 -158 -6 -193 60
-16 30 -26 36 -74 45 -31 6 -130 26 -221 45 -91 19 -210 44 -264 55 -89 19
-101 20 -116 6 -10 -9 -36 -15 -67 -15 -50 0 -51 1 -145 93 -173 169 -387 289
-608 341 -36 9 -68 16 -72 16 -5 0 -8 -228 -8 -506z"/>
<path d="M4595 6500 c-4 -6 0 -19 9 -28 47 -53 46 -27 47 -1067 0 -651 -4
-987 -11 -1013 -5 -22 -19 -51 -30 -65 -11 -14 -20 -33 -20 -42 0 -14 6 -16
38 -11 54 10 84 36 106 92 17 47 18 98 19 1044 1 918 -1 998 -16 1027 -10 18
-28 40 -41 48 -32 21 -92 30 -101 15z"/>
<path d="M5118 6477 c-76 -58 -78 -66 -75 -557 l2 -425 73 -3 72 -3 0 511 c0
434 -2 510 -14 510 -8 0 -34 -15 -58 -33z"/>
<path d="M3610 5921 c0 -5 -16 -19 -35 -31 -36 -22 -85 -24 -155 -5 -19 5 -51
-8 -140 -58 -127 -70 -485 -272 -595 -335 l-70 -39 -3 -50 c-3 -55 -2 -56 73
-98 69 -38 257 -144 455 -255 91 -50 188 -105 215 -120 46 -25 53 -27 75 -14
52 28 105 18 182 -38 18 -13 63 -7 433 57 116 20 282 49 370 64 l160 27 3 367
2 367 -24 10 c-13 5 -93 20 -178 35 -84 14 -227 38 -318 54 -448 79 -450 80
-450 62z"/>
<path d="M5780 5541 c-19 -15 -59 -40 -88 -55 -29 -15 -52 -32 -49 -39 2 -6
26 -23 55 -38 28 -14 67 -40 87 -58 20 -17 40 -29 46 -26 5 4 9 60 9 126 0
133 -3 138 -60 90z"/>
<path d="M5057 5378 c-17 -13 -18 -40 -15 -483 l3 -470 25 -50 c24 -48 77 -95
107 -95 11 0 13 92 11 553 l-3 552 -55 3 c-34 2 -62 -2 -73 -10z"/>
<path d="M5307 5384 c-4 -4 -7 -259 -7 -566 l0 -558 95 0 95 0 -2 563 -3 562
-85 3 c-47 1 -89 0 -93 -4z"/>
<path d="M2515 5230 c-18 -20 -18 -23 -3 -68 9 -26 46 -137 81 -247 225 -693
311 -957 330 -1012 20 -60 22 -63 52 -63 l32 0 197 410 196 411 -25 37 c-17
24 -25 50 -25 78 0 23 -6 46 -12 51 -7 6 -67 39 -133 73 -66 35 -238 128 -383
207 -145 78 -269 143 -276 143 -7 0 -21 -9 -31 -20z"/>
<path d="M7985 5111 c-234 -128 -396 -216 -490 -265 -37 -20 -40 -25 -45 -71
-3 -29 -15 -63 -28 -82 l-23 -32 45 -93 c41 -87 95 -199 231 -483 32 -66 70
-148 86 -182 26 -59 30 -63 61 -63 31 0 35 4 50 48 16 46 35 106 238 732 56
173 122 375 146 449 24 74 44 140 44 146 0 11 -42 36 -58 34 -4 0 -119 -62
-257 -138z"/>
<path d="M2189 5167 c-103 -86 -443 -365 -649 -532 -82 -66 -195 -158 -252
-205 -56 -46 -213 -174 -348 -283 -135 -110 -249 -203 -254 -207 -8 -8 19
-106 33 -122 3 -4 139 -14 301 -23 162 -8 360 -20 440 -25 80 -6 316 -19 525
-30 388 -20 672 -37 758 -45 45 -4 48 -3 62 28 8 18 20 39 26 48 10 13 3 44
-33 155 -25 76 -92 281 -148 454 -246 759 -270 830 -289 830 -9 0 -26 7 -37
15 -10 8 -26 14 -34 14 -8 0 -54 -33 -101 -72z"/>
<path d="M8460 5218 c-42 -19 -46 -24 -67 -86 -12 -37 -67 -209 -123 -382 -56
-173 -112 -346 -125 -385 -13 -38 -61 -184 -106 -324 -80 -248 -81 -255 -65
-280 10 -14 20 -34 23 -43 3 -10 10 -18 17 -19 33 -2 156 3 271 11 72 6 308
19 525 30 217 11 458 25 535 30 77 6 273 17 435 26 201 10 297 19 302 27 4 7
15 34 24 61 16 47 16 49 -4 65 -11 9 -64 52 -119 96 -54 45 -156 128 -227 185
-70 58 -172 141 -226 185 -54 44 -144 118 -201 164 -221 180 -567 463 -711
581 -53 44 -100 80 -105 79 -4 -1 -28 -10 -53 -21z"/>
<path d="M4185 4834 c-203 -30 -407 -59 -453 -65 -82 -11 -83 -11 -103 -50
-21 -41 -64 -74 -110 -84 -23 -5 -37 -30 -119 -208 -51 -111 -115 -249 -141
-305 -27 -57 -49 -106 -49 -108 0 -2 -20 -47 -45 -100 -25 -52 -45 -101 -45
-109 0 -19 43 -84 55 -84 6 -1 105 10 220 24 116 13 314 36 440 50 l230 26 37
43 c35 41 68 61 112 68 13 2 27 29 52 97 43 117 43 131 5 131 -16 0 -37 7 -45
16 -20 20 -21 68 -1 84 8 7 61 16 118 20 163 13 215 45 237 141 15 65 2 461
-15 464 -5 1 -176 -22 -380 -51z"/>
<path d="M7055 4723 c-16 -2 -133 -15 -260 -29 -126 -14 -230 -26 -230 -27 -1
-1 -39 -103 -85 -227 l-83 -225 49 -94 c98 -187 101 -191 137 -191 42 0 91
-31 119 -75 13 -19 30 -35 38 -35 8 0 110 -11 225 -25 487 -56 651 -75 660
-75 12 1 55 66 55 85 0 12 -25 69 -110 250 -15 33 -80 175 -145 317 l-117 256
-43 11 c-40 10 -95 57 -95 82 0 9 -54 10 -115 2z"/>
<path d="M6210 4435 c-30 -25 -97 -70 -147 -101 -51 -31 -93 -61 -93 -66 0
-14 207 -5 222 10 9 9 88 187 88 199 0 10 -21 -2 -70 -42z"/>
<path d="M4426 4149 c-3 -8 -25 -69 -50 -137 l-46 -122 20 -33 c34 -55 25
-131 -21 -183 -19 -20 -18 -24 16 -195 20 -96 44 -219 55 -274 23 -118 78
-391 85 -422 3 -14 19 -26 52 -37 46 -16 47 -16 72 7 14 13 166 153 338 311
311 286 312 287 306 322 -6 35 21 114 39 114 16 0 7 20 -47 110 l-55 91 0 218
0 218 -272 7 c-150 3 -321 9 -380 13 -87 5 -108 3 -112 -8z"/>
<path d="M6060 4149 c-96 -3 -239 -7 -317 -8 l-143 -1 -2 -222 -3 -223 -50 0
-50 0 -3 223 -2 222 -95 0 -95 0 0 -219 0 -220 32 -53 c17 -29 38 -63 45 -75
8 -13 23 -23 36 -23 13 0 42 -12 65 -27 48 -32 78 -94 69 -142 -6 -26 0 -36
41 -74 86 -80 588 -542 608 -559 19 -17 24 -17 67 -2 33 11 49 23 52 37 3 12
43 213 90 447 82 413 83 425 66 445 -44 48 -54 103 -30 168 13 37 13 39 -50
160 -77 148 -85 158 -125 155 -17 -1 -110 -5 -206 -9z"/>
<path d="M3940 3709 c-137 -19 -511 -69 -632 -85 -123 -16 -127 -17 -138 -45
-7 -15 -10 -32 -7 -36 3 -5 43 -35 89 -68 46 -33 124 -89 173 -125 50 -36 220
-160 378 -276 159 -115 340 -246 402 -291 63 -46 120 -83 128 -83 8 0 21 8 30
18 16 17 15 28 -9 158 -14 76 -34 189 -45 249 -11 61 -30 166 -43 235 -13 69
-29 158 -36 197 l-12 73 -39 10 c-24 7 -49 23 -66 45 -31 39 -47 41 -173 24z"/>
<path d="M6687 3685 c-17 -22 -42 -38 -67 -45 -22 -6 -40 -15 -40 -20 0 -5
-16 -96 -36 -202 -19 -106 -44 -240 -54 -298 -11 -58 -31 -168 -45 -245 -25
-138 -25 -140 -5 -159 23 -23 42 -17 113 36 65 49 273 201 422 308 72 52 162
117 200 145 39 29 159 116 268 195 108 78 197 146 197 151 0 4 -4 19 -9 32
-10 26 21 20 -376 73 -376 50 -490 64 -515 64 -17 0 -34 -12 -53 -35z"/>
<path d="M780 3683 c0 -3 14 -24 30 -47 50 -67 154 -209 170 -233 8 -12 114
-157 235 -323 121 -166 230 -316 242 -333 24 -35 378 -522 538 -740 33 -45 68
-93 77 -107 10 -14 42 -59 73 -100 30 -41 85 -117 121 -167 36 -51 69 -93 74
-93 5 0 14 17 19 38 5 20 19 71 29 112 11 41 50 188 87 325 36 138 77 291 90
340 26 97 99 373 219 827 42 158 76 291 76 296 0 5 -13 26 -29 46 -16 21 -31
41 -33 46 -3 10 -125 18 -1093 70 -302 17 -617 34 -700 40 -178 11 -225 12
-225 3z"/>
<path d="M9785 3679 c-66 -4 -295 -17 -510 -28 -455 -25 -1050 -58 -1182 -67
-77 -5 -93 -9 -98 -24 -3 -10 -18 -30 -32 -44 -32 -32 -36 -7 61 -368 128
-478 198 -744 216 -813 10 -38 50 -191 90 -340 40 -148 82 -310 95 -358 13
-49 26 -91 29 -95 9 -8 2 -17 211 273 103 143 211 292 240 330 28 39 136 187
240 330 103 143 204 283 225 310 21 28 158 217 305 420 147 204 285 393 306
421 22 28 39 54 39 57 0 8 -68 7 -235 -4z"/>
<path d="M7706 3451 c-14 -9 -102 -72 -196 -141 -95 -69 -185 -134 -200 -145
-50 -35 -601 -436 -696 -506 -91 -67 -91 -68 -98 -120 -4 -28 -6 -52 -4 -53
10 -8 218 -142 293 -190 50 -32 142 -91 205 -132 63 -41 166 -107 228 -147 62
-39 182 -117 267 -172 85 -55 211 -136 280 -180 69 -44 194 -124 278 -179 201
-130 185 -125 241 -87 25 18 46 40 46 49 0 9 -14 69 -31 132 -17 63 -41 156
-54 205 -13 50 -69 263 -125 475 -56 212 -110 417 -120 455 -10 39 -32 122
-48 185 -17 63 -56 209 -86 324 -30 114 -57 211 -61 214 -3 4 -26 11 -50 18
-37 9 -49 8 -69 -5z"/>
<path d="M3007 3453 c-17 -3 -32 -13 -37 -26 -8 -19 -29 -95 -136 -504 -53
-203 -76 -293 -174 -663 -56 -212 -115 -434 -131 -495 -15 -60 -41 -159 -57
-218 l-29 -109 46 -34 c25 -18 51 -34 57 -34 6 0 44 22 85 48 41 27 110 72
154 100 44 28 157 101 250 161 94 60 232 149 308 198 75 48 162 104 192 123
30 19 92 59 137 88 46 29 191 123 323 209 132 85 253 163 268 172 23 13 27 21
23 45 -4 16 -6 39 -6 52 0 21 -46 62 -140 126 -14 9 -74 53 -135 98 -60 44
-161 118 -223 163 -62 45 -153 111 -202 147 -245 178 -322 234 -405 295 -89
65 -99 68 -168 58z"/>
<path d="M5250 3208 c-343 -323 -590 -565 -590 -578 0 -9 6 -24 13 -33 11 -16
64 -17 732 -15 l720 3 9 28 c10 27 6 32 -54 90 -141 134 -469 446 -532 506
l-66 62 -41 -12 c-32 -9 -50 -9 -80 -1 -21 7 -40 12 -42 12 -2 0 -33 -28 -69
-62z"/>
<path d="M4623 2430 c-18 -21 -33 -43 -33 -47 0 -5 22 -65 49 -134 27 -68 66
-167 86 -219 20 -52 47 -122 60 -155 13 -33 44 -114 70 -180 25 -66 68 -176
95 -245 79 -202 156 -398 195 -500 20 -52 47 -122 60 -155 13 -33 44 -114 69
-180 26 -66 50 -127 55 -135 6 -11 26 -15 72 -15 l64 0 47 120 c59 148 75 189
133 340 26 66 68 176 95 245 27 69 69 177 93 240 53 136 139 356 207 530 27
69 69 179 94 245 26 66 53 135 61 153 20 44 20 48 -17 92 l-33 40 -745 0 -745
0 -32 -40z"/>
<path d="M4100 2229 c-135 -88 -279 -182 -320 -208 -135 -87 -623 -402 -735
-475 -60 -40 -170 -110 -242 -156 -73 -47 -133 -88 -133 -92 0 -4 10 -10 23
-13 30 -9 745 -240 832 -270 39 -13 126 -41 195 -63 69 -22 242 -79 385 -125
143 -47 395 -129 560 -182 165 -53 346 -112 403 -131 96 -32 132 -40 132 -30
0 3 -13 37 -29 78 -16 40 -46 116 -66 168 -20 52 -47 123 -61 158 -13 34 -35
90 -48 125 -14 34 -41 105 -61 157 -20 52 -47 122 -60 155 -13 33 -35 92 -50
130 -15 39 -42 108 -60 155 -18 47 -45 117 -60 155 -15 39 -42 108 -60 155
-19 47 -50 128 -70 180 -20 52 -50 132 -68 176 l-31 82 -58 16 c-32 9 -61 16
-65 15 -5 0 -118 -72 -253 -160z"/>
<path d="M6395 2380 c-11 -5 -31 -11 -45 -14 -21 -4 -31 -20 -57 -88 -17 -46
-59 -153 -92 -238 -33 -85 -76 -198 -96 -250 -20 -52 -51 -133 -70 -180 -18
-47 -45 -116 -60 -155 -15 -38 -42 -108 -60 -155 -18 -47 -45 -116 -60 -155
-15 -38 -42 -108 -60 -155 -18 -47 -44 -115 -59 -153 -41 -106 -76 -196 -107
-275 -16 -41 -29 -75 -29 -78 0 -10 33 -2 131 30 57 19 253 82 434 141 182 58
348 113 370 120 22 8 182 60 355 116 173 55 380 123 460 149 155 51 720 234
758 245 12 3 22 10 22 13 0 4 -48 38 -107 76 -60 37 -155 99 -213 136 -58 38
-141 92 -185 120 -44 28 -150 96 -235 152 -85 55 -193 125 -240 155 -47 30
-125 81 -175 113 -49 32 -133 86 -185 120 -374 241 -351 229 -395 210z"/>
</g>
</svg>
